<?xml version="1.0" encoding="UTF-8" standalone="no"?>
<!-- Created with Inkscape (http://www.inkscape.org/) -->

<svg
   xmlns:dc="http://purl.org/dc/elements/1.1/"
   xmlns:cc="http://creativecommons.org/ns#"
   xmlns:rdf="http://www.w3.org/1999/02/22-rdf-syntax-ns#"
   xmlns:svg="http://www.w3.org/2000/svg"
   xmlns="http://www.w3.org/2000/svg"
   xmlns:sodipodi="http://sodipodi.sourceforge.net/DTD/sodipodi-0.dtd"
   xmlns:inkscape="http://www.inkscape.org/namespaces/inkscape"
   width="1050.2083"
   height="1169.082"
   id="svg12136"
   version="1.1"
   inkscape:version="0.92.4 (5da689c313, 2019-01-14)"
   sodipodi:docname="lgm2020Logo-Full.svg"
   inkscape:export-filename="LGM2020-full.png"
   inkscape:export-xdpi="22.85261"
   inkscape:export-ydpi="22.85261">
  <defs
     id="defs12138" />
  <sodipodi:namedview
     id="base"
     pagecolor="#3d3d3d"
     bordercolor="#666666"
     borderopacity="1.0"
     inkscape:pageopacity="0"
     inkscape:pageshadow="2"
     inkscape:zoom="0.35714549"
     inkscape:cx="-1265.2384"
     inkscape:cy="489.97812"
     inkscape:document-units="px"
     inkscape:current-layer="g16386"
     showgrid="true"
     inkscape:window-width="1876"
     inkscape:window-height="1034"
     inkscape:window-x="0"
     inkscape:window-y="13"
     inkscape:window-maximized="0"
     fit-margin-top="0"
     fit-margin-left="0"
     fit-margin-right="0"
     fit-margin-bottom="0">
    <inkscape:grid
       type="xygrid"
       id="grid845" />
  </sodipodi:namedview>
  <metadata
     id="metadata12141">
    <rdf:RDF>
      <cc:Work
         rdf:about="">
        <dc:format>image/svg+xml</dc:format>
        <dc:type
           rdf:resource="http://purl.org/dc/dcmitype/StillImage" />
        <dc:title></dc:title>
        <dc:date>2019</dc:date>
        <dc:creator>
          <cc:Agent>
            <dc:title>Timothée Giet</dc:title>
          </cc:Agent>
        </dc:creator>
        <cc:license
           rdf:resource="http://creativecommons.org/licenses/by-sa/4.0/" />
      </cc:Work>
      <cc:License
         rdf:about="http://creativecommons.org/licenses/by-sa/4.0/">
        <cc:permits
           rdf:resource="http://creativecommons.org/ns#Reproduction" />
        <cc:permits
           rdf:resource="http://creativecommons.org/ns#Distribution" />
        <cc:requires
           rdf:resource="http://creativecommons.org/ns#Notice" />
        <cc:requires
           rdf:resource="http://creativecommons.org/ns#Attribution" />
        <cc:permits
           rdf:resource="http://creativecommons.org/ns#DerivativeWorks" />
        <cc:requires
           rdf:resource="http://creativecommons.org/ns#ShareAlike" />
      </cc:License>
    </rdf:RDF>
  </metadata>
  <g
     inkscape:label="Calque 1"
     inkscape:groupmode="layer"
     id="layer1"
     transform="translate(1507.247,38.108651)">
    <g
       transform="translate(-188.10078,-132.72836)"
       style="display:inline"
       id="g16386">
      <g
         aria-label="LIBRE GRAPHICS  MEETING 2020 RENNES 26-29 MAY"
         style="font-style:normal;font-variant:normal;font-weight:bold;font-stretch:normal;font-size:190.48901367px;line-height:80.00000119%;font-family:DIN_OSP;-inkscape-font-specification:'DIN_OSP Bold';text-align:start;writing-mode:lr-tb;text-anchor:start;fill:#000000;fill-opacity:1;stroke:none"
         id="text3063">
        <path
           d="M -1205.8705,783.46063 V 650.08112 h 19.0675 v 114.31201 h 38.135 v 19.0675 z"
           style="line-height:80.00000119%;font-family:OSP-DIN;-inkscape-font-specification:OSP-DIN;fill:#ffffff;fill-opacity:1"
           id="path875"
           inkscape:connector-curvature="0" />
        <path
           d="m -1116.6718,783.46063 h -19.0675 V 650.08112 h 19.0675 z"
           style="line-height:80.00000119%;font-family:OSP-DIN;-inkscape-font-specification:OSP-DIN;fill:#ffffff;fill-opacity:1"
           id="path877"
           inkscape:connector-curvature="0" />
        <path
           d="m -1097.9764,650.26714 h 38.1351 q 7.813,0 13.3007,5.58074 5.5807,5.48772 5.5807,13.48677 v 40.3673 q 0,2.88338 -2.1392,5.02266 -2.0463,2.04627 -4.9297,2.04627 v 0.18602 q 2.8834,0 4.9297,2.13928 2.1392,2.04627 2.1392,4.92965 v 40.55332 q 0,7.81303 -5.5807,13.39376 -5.4877,5.48772 -13.3007,5.48772 h -38.1351 z m 18.8815,18.88148 v 38.32103 h 11.9986 q 3.0694,0 5.1157,-2.04626 2.1393,-2.13929 2.1393,-5.20869 v -23.81113 q 0,-3.0694 -2.1393,-5.11567 -2.0463,-2.13928 -5.1157,-2.13928 z m 0,57.20251 v 38.22802 h 11.9986 q 3.0694,0 5.1157,-2.04627 2.1393,-2.13928 2.1393,-5.20868 v -23.81113 q 0,-3.0694 -2.1393,-5.11567 -2.0463,-2.04627 -5.1157,-2.04627 z"
           style="line-height:80.00000119%;font-family:OSP-DIN;-inkscape-font-specification:OSP-DIN;fill:#ffffff;fill-opacity:1"
           id="path879"
           inkscape:connector-curvature="0" />
        <path
           d="m -1022.8225,650.26714 38.13502,0.18603 q 7.81303,0 13.30075,5.58073 5.58073,5.48772 5.58073,13.30075 v 38.135 q 0,10.88243 -9.39423,16.37015 v 0 l 9.39423,59.62083 h -18.88148 l -9.48724,-57.1095 h -9.76628 v 57.1095 h -18.8815 z m 18.8815,18.88148 v 38.50706 h 11.99857 q 3.0694,0 5.11567,-2.13928 2.13928,-2.2323 2.13928,-5.11567 V 676.5896 q 0,-3.0694 -2.13928,-5.20869 -2.04627,-2.23229 -5.11567,-2.23229 z"
           style="line-height:80.00000119%;font-family:OSP-DIN;-inkscape-font-specification:OSP-DIN;fill:#ffffff;fill-opacity:1"
           id="path881"
           inkscape:connector-curvature="0" />
        <path
           d="M -949.52885,783.46063 V 650.08112 h 57.20252 v 19.0675 h -38.13501 v 38.13501 h 28.55475 v 19.0675 h -28.55475 v 38.042 h 38.13501 v 19.0675 z"
           style="line-height:80.00000119%;font-family:OSP-DIN;-inkscape-font-specification:OSP-DIN;fill:#ffffff;fill-opacity:1"
           id="path883"
           inkscape:connector-curvature="0" />
        <path
           d="m -837.35614,658.54523 q 8.3711,-8.46411 20.18365,-8.46411 11.81255,0 20.18365,8.46411 8.3711,8.3711 8.3711,20.18365 h -18.97449 q 0,-3.99953 -2.79037,-6.78989 -2.79036,-2.79037 -6.78989,-2.79037 -3.99952,0 -6.78989,2.79037 -2.69735,2.79036 -2.69735,6.78989 v 76.177 q 0,3.99953 2.69735,6.78989 2.79037,2.69736 6.78989,2.69736 3.99953,0 6.78989,-2.69736 2.79037,-2.79036 2.79037,-6.78989 v -28.55475 h -9.58026 v -19.0675 h 28.55475 v 47.62225 q 0,11.81255 -8.3711,20.18365 -8.3711,8.3711 -20.18365,8.3711 -11.81255,0 -20.18365,-8.3711 -8.3711,-8.3711 -8.3711,-20.18365 v -76.177 q 0,-11.81255 8.3711,-20.18365 z"
           style="line-height:80.00000119%;font-family:OSP-DIN;-inkscape-font-specification:OSP-DIN;fill:#ffffff;fill-opacity:1"
           id="path885"
           inkscape:connector-curvature="0" />
        <path
           d="m -771.31745,650.26714 38.13501,0.18603 q 7.81302,0 13.30074,5.58073 5.58074,5.48772 5.58074,13.30075 v 38.135 q 0,10.88243 -9.39424,16.37015 v 0 l 9.39424,59.62083 h -18.88148 l -9.48725,-57.1095 h -9.76628 v 57.1095 h -18.88148 z m 18.88148,18.88148 v 38.50706 h 11.99857 q 3.06941,0 5.11568,-2.13928 2.13928,-2.2323 2.13928,-5.11567 V 676.5896 q 0,-3.0694 -2.13928,-5.20869 -2.04627,-2.23229 -5.11568,-2.23229 z"
           style="line-height:80.00000119%;font-family:OSP-DIN;-inkscape-font-specification:OSP-DIN;fill:#ffffff;fill-opacity:1"
           id="path887"
           inkscape:connector-curvature="0" />
        <path
           d="m -678.21224,650.08112 h 18.88148 l 28.55475,133.37951 h -18.88148 l -5.67375,-28.55475 -26.88052,-0.18602 -5.67375,28.74077 h -18.88148 z m 9.39423,38.13501 -9.58025,47.80827 h 19.25352 l -9.48724,-47.80827 q 0,0 -0.18603,0 z"
           style="line-height:80.00000119%;font-family:OSP-DIN;-inkscape-font-specification:OSP-DIN;fill:#ffffff;fill-opacity:1"
           id="path889"
           inkscape:connector-curvature="0" />
        <path
           d="m -621.38175,650.26714 h 38.13501 q 7.81302,0 13.30074,5.58074 5.58074,5.48772 5.58074,13.48677 v 38.135 q 0,7.81303 -5.58074,13.39376 -5.48772,5.48772 -13.30074,5.48772 h -19.25353 v 57.1095 h -18.88148 z m 18.88148,18.88148 v 38.32103 h 11.99857 q 3.06941,0 5.11568,-2.04626 2.13928,-2.13929 2.13928,-5.20869 v -23.81113 q 0,-3.0694 -2.13928,-5.11567 -2.04627,-2.13928 -5.11568,-2.13928 z"
           style="line-height:80.00000119%;font-family:OSP-DIN;-inkscape-font-specification:OSP-DIN;fill:#ffffff;fill-opacity:1"
           id="path891"
           inkscape:connector-curvature="0" />
        <path
           d="m -549.9484,650.08112 h 19.0675 v 57.20251 h 19.06751 v -57.20251 h 19.0675 v 133.37951 h -19.0675 v -57.1095 h -19.06751 v 57.1095 h -19.0675 z"
           style="line-height:80.00000119%;font-family:OSP-DIN;-inkscape-font-specification:OSP-DIN;fill:#ffffff;fill-opacity:1"
           id="path893"
           inkscape:connector-curvature="0" />
        <path
           d="m -454.79688,783.46063 h -19.06751 V 650.08112 h 19.06751 z"
           style="line-height:80.00000119%;font-family:OSP-DIN;-inkscape-font-specification:OSP-DIN;fill:#ffffff;fill-opacity:1"
           id="path895"
           inkscape:connector-curvature="0" />
        <path
           d="m -428.84646,658.54523 q 8.3711,-8.46411 20.18365,-8.46411 11.81255,0 20.18365,8.46411 8.3711,8.3711 8.3711,20.18365 v 9.48725 h -18.9745 v -9.48725 q 0,-3.99953 -2.79036,-6.78989 -2.79037,-2.79037 -6.78989,-2.79037 -3.99953,0 -6.7899,2.79037 -2.69735,2.79036 -2.69735,6.78989 v 76.177 q 0,3.99953 2.69735,6.78989 2.79037,2.69736 6.7899,2.69736 3.99952,0 6.78989,-2.69736 2.79036,-2.79036 2.79036,-6.78989 v -9.58026 h 18.9745 v 9.58026 q 0,11.81255 -8.3711,20.18365 -8.3711,8.3711 -20.18365,8.3711 -11.81255,0 -20.18365,-8.3711 -8.3711,-8.3711 -8.3711,-20.18365 v -76.177 q 0,-11.81255 8.3711,-20.18365 z"
           style="line-height:80.00000119%;font-family:OSP-DIN;-inkscape-font-specification:OSP-DIN;fill:#ffffff;fill-opacity:1"
           id="path897"
           inkscape:connector-curvature="0" />
        <path
           d="m -369.22565,745.32562 v 9.58026 q 0,11.81255 8.3711,20.18365 8.46411,8.3711 20.27666,8.3711 11.81256,0 20.18365,-8.3711 8.3711,-8.3711 8.3711,-20.18365 v -19.0675 q 0,-10.88243 -7.25495,-19.0675 -8.55712,-9.48725 -21.2998,-9.48725 -3.99952,0 -6.78989,-2.79037 -2.79036,-2.79036 -2.79036,-6.78989 v -18.97449 q 0,-3.99953 2.79036,-6.78989 2.79037,-2.79037 6.78989,-2.79037 3.99953,0 6.69688,2.79037 2.79037,2.79036 2.79037,6.78989 v 9.48725 h 17.30027 1.76723 v -9.48725 q 0,-11.81255 -8.3711,-20.18365 -8.37109,-8.46411 -20.18365,-8.46411 -11.81255,0 -20.27666,8.46411 -8.3711,8.3711 -8.3711,20.18365 v 18.97449 q 0,10.88243 7.25496,19.06751 8.55712,9.48724 21.3928,9.58025 3.99953,0 6.69688,2.79037 2.79037,2.69735 2.79037,6.69688 v 19.0675 q 0,3.99953 -2.79037,6.78989 -2.69735,2.69736 -6.69688,2.69736 -3.99952,0 -6.78989,-2.69736 -2.79036,-2.79036 -2.79036,-6.78989 v -9.58026 z"
           style="line-height:80.00000119%;font-family:OSP-DIN;-inkscape-font-specification:OSP-DIN;fill:#ffffff;fill-opacity:1"
           id="path899"
           inkscape:connector-curvature="0" />
        <path
           d="m -1172.4791,914.92411 -14.3239,-42.87863 v 71.43338 h -19.0675 V 810.09934 h 19.0675 l 23.8111,71.43338 23.8111,-71.43338 h 19.0675 v 133.37952 h -19.0675 v -71.43338 l -14.2308,42.87863 z"
           style="font-style:normal;font-variant:normal;font-weight:bold;font-stretch:normal;font-size:190.48901367px;line-height:80.00000119%;font-family:OSP-DIN;-inkscape-font-specification:OSP-DIN;text-align:start;writing-mode:lr-tb;text-anchor:start;fill:#51d5ea;fill-opacity:1"
           id="path901"
           inkscape:connector-curvature="0" />
        <path
           d="M -1101.6968,943.47886 V 810.09934 h 57.2025 v 19.06751 h -38.135 v 38.13501 h 28.5547 v 19.0675 h -28.5547 v 38.04199 h 38.135 v 19.06751 z"
           style="font-style:normal;font-variant:normal;font-weight:bold;font-stretch:normal;font-size:190.48901367px;line-height:80.00000119%;font-family:OSP-DIN;-inkscape-font-specification:OSP-DIN;text-align:start;writing-mode:lr-tb;text-anchor:start;fill:#51d5ea;fill-opacity:1"
           id="path903"
           inkscape:connector-curvature="0" />
        <path
           d="M -1032.1237,943.47886 V 810.09934 h 57.2025 v 19.06751 h -38.135 v 38.13501 h 28.55474 v 19.0675 h -28.55474 v 38.04199 h 38.135 v 19.06751 z"
           style="font-style:normal;font-variant:normal;font-weight:bold;font-stretch:normal;font-size:190.48901367px;line-height:80.00000119%;font-family:OSP-DIN;-inkscape-font-specification:OSP-DIN;text-align:start;writing-mode:lr-tb;text-anchor:start;fill:#51d5ea;fill-opacity:1"
           id="path905"
           inkscape:connector-curvature="0" />
        <path
           d="m -972.22384,810.09934 h 57.10949 v 19.06751 h -19.0675 v 114.31201 h -18.97449 V 829.16685 h -19.0675 z"
           style="font-style:normal;font-variant:normal;font-weight:bold;font-stretch:normal;font-size:190.48901367px;line-height:80.00000119%;font-family:OSP-DIN;-inkscape-font-specification:OSP-DIN;text-align:start;writing-mode:lr-tb;text-anchor:start;fill:#51d5ea;fill-opacity:1"
           id="path907"
           inkscape:connector-curvature="0" />
        <path
           d="m -886.74562,943.47886 h -19.0675 V 810.09934 h 19.0675 z"
           style="font-style:normal;font-variant:normal;font-weight:bold;font-stretch:normal;font-size:190.48901367px;line-height:80.00000119%;font-family:OSP-DIN;-inkscape-font-specification:OSP-DIN;text-align:start;writing-mode:lr-tb;text-anchor:start;fill:#51d5ea;fill-opacity:1"
           id="path909"
           inkscape:connector-curvature="0" />
        <path
           d="m -868.79425,810.09934 h 19.06751 l 19.0675,66.68976 v -66.68976 h 19.06751 v 133.37952 h -19.06751 l -19.0675,-66.68976 v 66.68976 h -19.06751 z"
           style="font-style:normal;font-variant:normal;font-weight:bold;font-stretch:normal;font-size:190.48901367px;line-height:80.00000119%;font-family:OSP-DIN;-inkscape-font-specification:OSP-DIN;text-align:start;writing-mode:lr-tb;text-anchor:start;fill:#51d5ea;fill-opacity:1"
           id="path911"
           inkscape:connector-curvature="0" />
        <path
           d="m -786.75747,818.56346 q 8.37109,-8.46412 20.18365,-8.46412 11.81255,0 20.18365,8.46412 8.3711,8.37109 8.3711,20.18365 h -18.9745 q 0,-3.99953 -2.79036,-6.7899 -2.79037,-2.79036 -6.78989,-2.79036 -3.99953,0 -6.7899,2.79036 -2.69735,2.79037 -2.69735,6.7899 v 76.177 q 0,3.99952 2.69735,6.78989 2.79037,2.69735 6.7899,2.69735 3.99952,0 6.78989,-2.69735 2.79036,-2.79037 2.79036,-6.78989 v -28.55475 h -9.58025 v -19.0675 h 28.55475 v 47.62225 q 0,11.81255 -8.3711,20.18365 -8.3711,8.3711 -20.18365,8.3711 -11.81256,0 -20.18365,-8.3711 -8.3711,-8.3711 -8.3711,-20.18365 v -76.177 q 0,-11.81256 8.3711,-20.18365 z"
           style="font-style:normal;font-variant:normal;font-weight:bold;font-stretch:normal;font-size:190.48901367px;line-height:80.00000119%;font-family:OSP-DIN;-inkscape-font-specification:OSP-DIN;text-align:start;writing-mode:lr-tb;text-anchor:start;fill:#51d5ea;fill-opacity:1"
           id="path913"
           inkscape:connector-curvature="0" />
        <path
           d="m -679.60743,818.56346 q 8.3711,-8.46412 20.18365,-8.46412 11.81256,0 20.18366,8.46412 8.37109,8.37109 8.37109,20.18365 0,6.32483 -2.51133,11.81255 l -33.29837,73.85169 h 35.8097 v 19.06751 h -57.10949 v -19.06751 l 35.8097,-78.31628 q 2.3253,-5.48772 2.23229,-7.34796 0,-3.99953 -2.79037,-6.7899 -2.69735,-2.79036 -6.69688,-2.79036 -3.99952,0 -6.78989,2.79036 -2.79036,2.79037 -2.79036,6.7899 h -18.97449 q 0,-11.81256 8.37109,-20.18365 z"
           style="line-height:80.00000119%;font-family:OSP-DIN;-inkscape-font-specification:OSP-DIN;fill:#ffffff;fill-opacity:1"
           id="path915"
           inkscape:connector-curvature="0" />
        <path
           d="m -609.66224,818.56346 q 8.3711,-8.46412 20.18366,-8.46412 11.81255,0 20.18365,8.46412 8.37109,8.37109 8.37109,20.18365 v 76.177 q 0,11.81255 -8.37109,20.18365 -8.3711,8.3711 -20.18365,8.3711 -11.81256,0 -20.18366,-8.3711 -8.37109,-8.3711 -8.37109,-20.18365 v -76.177 q 0,-11.81256 8.37109,-20.18365 z m 26.88053,13.39375 q -2.69735,-2.79036 -6.69687,-2.79036 -3.99953,0 -6.7899,2.79036 -2.79036,2.79037 -2.79036,6.7899 v 76.177 q 0,3.99952 2.79036,6.78989 2.79037,2.69735 6.7899,2.69735 3.99952,0 6.69687,-2.69735 2.79037,-2.79037 2.79037,-6.78989 v -76.177 q 0,-3.99953 -2.79037,-6.7899 z"
           style="line-height:80.00000119%;font-family:OSP-DIN;-inkscape-font-specification:OSP-DIN;fill:#ffffff;fill-opacity:1"
           id="path917"
           inkscape:connector-curvature="0" />
        <path
           d="m -539.71704,818.56346 q 8.37109,-8.46412 20.18365,-8.46412 11.81255,0 20.18365,8.46412 8.3711,8.37109 8.3711,20.18365 0,6.32483 -2.51133,11.81255 l -33.29838,73.85169 h 35.80971 v 19.06751 h -57.1095 v -19.06751 l 35.8097,-78.31628 q 2.3253,-5.48772 2.23229,-7.34796 0,-3.99953 -2.79037,-6.7899 -2.69735,-2.79036 -6.69687,-2.79036 -3.99953,0 -6.7899,2.79036 -2.79036,2.79037 -2.79036,6.7899 h -18.97449 q 0,-11.81256 8.3711,-20.18365 z"
           style="line-height:80.00000119%;font-family:OSP-DIN;-inkscape-font-specification:OSP-DIN;fill:#ffffff;fill-opacity:1"
           id="path919"
           inkscape:connector-curvature="0" />
        <path
           d="m -469.77185,818.56346 q 8.37109,-8.46412 20.18365,-8.46412 11.81255,0 20.18365,8.46412 8.3711,8.37109 8.3711,20.18365 v 76.177 q 0,11.81255 -8.3711,20.18365 -8.3711,8.3711 -20.18365,8.3711 -11.81256,0 -20.18365,-8.3711 -8.3711,-8.3711 -8.3711,-20.18365 v -76.177 q 0,-11.81256 8.3711,-20.18365 z m 26.88053,13.39375 q -2.69736,-2.79036 -6.69688,-2.79036 -3.99953,0 -6.7899,2.79036 -2.79036,2.79037 -2.79036,6.7899 v 76.177 q 0,3.99952 2.79036,6.78989 2.79037,2.69735 6.7899,2.69735 3.99952,0 6.69688,-2.69735 2.79036,-2.79037 2.79036,-6.78989 v -76.177 q 0,-3.99953 -2.79036,-6.7899 z"
           style="line-height:80.00000119%;font-family:OSP-DIN;-inkscape-font-specification:OSP-DIN;fill:#ffffff;fill-opacity:1"
           id="path921"
           inkscape:connector-curvature="0" />
        <path
           d="m -1205.8705,970.30359 38.135,0.18603 q 7.813,0 13.3007,5.58073 5.5808,5.48772 5.5808,13.30075 v 38.135 q 0,10.8824 -9.3943,16.3702 v 0 l 9.3943,59.6208 h -18.8815 l -9.4873,-57.1095 h -9.7662 v 57.1095 h -18.8815 z m 18.8815,18.88148 v 38.50703 h 11.9985 q 3.0694,0 5.1157,-2.1393 2.1393,-2.2322 2.1393,-5.1156 v -23.81115 q 0,-3.0694 -2.1393,-5.20868 -2.0463,-2.2323 -5.1157,-2.2323 z"
           style="line-height:80.00000119%;font-family:OSP-DIN;-inkscape-font-specification:OSP-DIN;fill:#51d5ea;fill-opacity:1"
           id="path923"
           inkscape:connector-curvature="0" />
        <path
           d="M -1132.5769,1103.4971 V 970.11757 h 57.2025 v 19.0675 h -38.135 v 38.13503 h 28.5548 v 19.0675 h -28.5548 v 38.042 h 38.135 v 19.0675 z"
           style="line-height:80.00000119%;font-family:OSP-DIN;-inkscape-font-specification:OSP-DIN;fill:#51d5ea;fill-opacity:1"
           id="path925"
           inkscape:connector-curvature="0" />
        <path
           d="m -1063.7479,970.11757 h 19.0675 l 19.0675,66.68973 v -66.68973 h 19.0676 v 133.37953 h -19.0676 l -19.0675,-66.6898 v 66.6898 h -19.0675 z"
           style="line-height:80.00000119%;font-family:OSP-DIN;-inkscape-font-specification:OSP-DIN;fill:#51d5ea;fill-opacity:1"
           id="path927"
           inkscape:connector-curvature="0" />
        <path
           d="m -989.71014,970.11757 h 19.06751 l 19.0675,66.68973 v -66.68973 h 19.0675 v 133.37953 h -19.0675 l -19.0675,-66.6898 v 66.6898 h -19.06751 z"
           style="line-height:80.00000119%;font-family:OSP-DIN;-inkscape-font-specification:OSP-DIN;fill:#51d5ea;fill-opacity:1"
           id="path929"
           inkscape:connector-curvature="0" />
        <path
           d="M -914.92832,1103.4971 V 970.11757 h 57.20251 v 19.0675 h -38.13501 v 38.13503 h 28.55475 v 19.0675 h -28.55475 v 38.042 h 38.13501 v 19.0675 z"
           style="line-height:80.00000119%;font-family:OSP-DIN;-inkscape-font-specification:OSP-DIN;fill:#51d5ea;fill-opacity:1"
           id="path931"
           inkscape:connector-curvature="0" />
        <path
           d="m -849.1687,1065.3621 v 9.5802 q 0,11.8126 8.3711,20.1837 8.46411,8.3711 20.27666,8.3711 11.81255,0 20.18365,-8.3711 8.3711,-8.3711 8.3711,-20.1837 v -19.0675 q 0,-10.8824 -7.25495,-19.0675 -8.55713,-9.4872 -21.2998,-9.4872 -3.99953,0 -6.78989,-2.7904 -2.79037,-2.7904 -2.79037,-6.7899 v -18.97447 q 0,-3.99952 2.79037,-6.78989 2.79036,-2.79037 6.78989,-2.79037 3.99953,0 6.69688,2.79037 2.79037,2.79037 2.79037,6.78989 v 9.48727 h 17.30027 1.76723 v -9.48727 q 0,-11.81255 -8.3711,-20.18365 -8.3711,-8.46411 -20.18365,-8.46411 -11.81255,0 -20.27666,8.46411 -8.3711,8.3711 -8.3711,20.18365 v 18.97447 q 0,10.8825 7.25495,19.0675 8.55712,9.4873 21.39281,9.5803 3.99953,0 6.69688,2.7904 2.79037,2.6973 2.79037,6.6968 v 19.0675 q 0,3.9996 -2.79037,6.7899 -2.69735,2.6974 -6.69688,2.6974 -3.99953,0 -6.78989,-2.6974 -2.79037,-2.7903 -2.79037,-6.7899 v -9.5802 z"
           style="line-height:80.00000119%;font-family:OSP-DIN;-inkscape-font-specification:OSP-DIN;fill:#51d5ea;fill-opacity:1"
           id="path933"
           inkscape:connector-curvature="0" />
        <path
           d="m -1200.1038,1138.5999 q 8.3711,-8.4641 20.1837,-8.4641 11.8125,0 20.1836,8.4641 8.3711,8.3711 8.3711,20.1837 0,6.3248 -2.5113,11.8125 l -33.2984,73.8517 h 35.8097 v 19.0675 h -57.1095 v -19.0675 l 35.8097,-78.3163 q 2.3253,-5.4877 2.2323,-7.3479 0,-3.9996 -2.7903,-6.7899 -2.6974,-2.7904 -6.6969,-2.7904 -3.9995,0 -6.7899,2.7904 -2.7904,2.7903 -2.7904,6.7899 h -18.9745 q 0,-11.8126 8.3711,-20.1837 z"
           style="line-height:80.00000119%;font-family:OSP-DIN;-inkscape-font-specification:OSP-DIN;fill:#ffffff;fill-opacity:1"
           id="path935"
           inkscape:connector-curvature="0" />
        <path
           d="m -1130.1586,1138.5999 q 8.3711,-8.4641 20.1837,-8.4641 11.8125,0 20.1836,8.4641 8.3711,8.3711 8.3711,20.1837 v 9.4872 h -19.0675 v -9.4872 q 0,-3.9996 -2.7904,-6.7899 -2.6973,-2.7904 -6.6968,-2.7904 -3.9996,0 -6.7899,2.7904 -2.7904,2.7903 -2.7904,6.7899 v 20.7417 q 4.5576,-1.6742 9.5803,-1.7673 11.8125,0 20.1836,8.4642 8.3711,8.3711 8.3711,20.1836 v 28.5548 q 0,11.8125 -8.3711,20.1836 -8.3711,8.3711 -20.1836,8.3711 -11.8126,0 -20.1837,-8.3711 -8.3711,-8.3711 -8.3711,-20.1836 v -28.5548 -47.6222 q 0,-11.8126 8.3711,-20.1837 z m 26.8805,61.016 q -2.6973,-2.7903 -6.6968,-2.7903 -3.9996,0 -6.7899,2.7903 -2.7904,2.7904 -2.7904,6.7899 v 28.5548 q 0,3.9995 2.7904,6.7899 2.7903,2.6973 6.7899,2.6973 3.9995,0 6.6968,-2.6973 2.7904,-2.7904 2.7904,-6.7899 v -28.5548 q 0,-3.9995 -2.7904,-6.7899 z"
           style="line-height:80.00000119%;font-family:OSP-DIN;-inkscape-font-specification:OSP-DIN;fill:#ffffff;fill-opacity:1"
           id="path937"
           inkscape:connector-curvature="0" />
        <path
           d="m -1066.7243,1195.7094 h 45.7621 v 15.254 h -45.7621 z"
           style="line-height:80.00000119%;font-family:OSP-DIN;-inkscape-font-specification:OSP-DIN;fill:#ffffff;fill-opacity:1"
           id="path939"
           inkscape:connector-curvature="0" />
        <path
           d="m -997.70919,1138.5999 q 8.3711,-8.4641 20.18365,-8.4641 11.81255,0 20.18365,8.4641 8.3711,8.3711 8.3711,20.1837 0,6.3248 -2.51133,11.8125 l -33.29837,73.8517 h 35.8097 v 19.0675 h -57.10951 v -19.0675 l 35.80972,-78.3163 q 2.3253,-5.4877 2.23229,-7.3479 0,-3.9996 -2.79037,-6.7899 -2.69735,-2.7904 -6.69688,-2.7904 -3.99952,0 -6.78989,2.7904 -2.79036,2.7903 -2.79036,6.7899 h -18.97451 q 0,-11.8126 8.37111,-20.1837 z"
           style="line-height:80.00000119%;font-family:OSP-DIN;-inkscape-font-specification:OSP-DIN;fill:#ffffff;fill-opacity:1"
           id="path941"
           inkscape:connector-curvature="0" />
        <path
           d="m -887.39671,1255.1442 q -8.3711,8.3711 -20.18365,8.3711 -11.81255,0 -20.18365,-8.3711 -8.3711,-8.3711 -8.3711,-20.1836 v -9.5803 h 18.97449 v 9.5803 q 0,3.9995 2.79037,6.7899 2.79036,2.6973 6.78989,2.6973 3.99952,0 6.69688,-2.6973 2.79036,-2.7904 2.79036,-6.7899 v -20.7418 q -4.55759,1.6743 -9.48724,1.6743 -11.81255,0 -20.18365,-8.3711 -8.3711,-8.3711 -8.3711,-20.1837 v -28.5547 q 0,-11.8126 8.3711,-20.1837 8.3711,-8.4641 20.18365,-8.4641 11.81255,0 20.18365,8.4641 8.3711,8.3711 8.3711,20.1837 v 28.5547 47.6223 q 0,11.8125 -8.3711,20.1836 z m -26.97354,-61.016 q 2.79036,2.6974 6.78989,2.6974 3.99952,0 6.69688,-2.6974 2.79036,-2.7904 2.79036,-6.7899 v -28.5547 q 0,-3.9996 -2.79036,-6.7899 -2.69736,-2.7904 -6.69688,-2.7904 -3.99953,0 -6.78989,2.7904 -2.79037,2.7903 -2.79037,6.7899 v 28.5547 q 0,3.9995 2.79037,6.7899 z"
           style="line-height:80.00000119%;font-family:OSP-DIN;-inkscape-font-specification:OSP-DIN;fill:#ffffff;fill-opacity:1"
           id="path943"
           inkscape:connector-curvature="0" />
        <path
           d="m -794.84956,1234.9606 -14.32388,-42.8787 v 71.4334 h -19.0675 v -133.3795 h 19.0675 l 23.81113,71.4334 23.81112,-71.4334 h 19.06751 v 133.3795 h -19.06751 v -71.4334 l -14.23086,42.8787 z"
           style="line-height:80.00000119%;font-family:OSP-DIN;-inkscape-font-specification:OSP-DIN;fill:#ffffff;fill-opacity:1"
           id="path945"
           inkscape:connector-curvature="0" />
        <path
           d="m -704.25567,1130.1358 h 18.88148 l 28.55475,133.3795 h -18.88148 l -5.67374,-28.5547 -26.88053,-0.1861 -5.67375,28.7408 h -18.88148 z m 9.39424,38.135 -9.58026,47.8083 h 19.25353 l -9.48725,-47.8083 q 0,0 -0.18602,0 z"
           style="line-height:80.00000119%;font-family:OSP-DIN;-inkscape-font-specification:OSP-DIN;fill:#ffffff;fill-opacity:1"
           id="path947"
           inkscape:connector-curvature="0" />
        <path
           d="m -642.58856,1225.5663 v 38.135 h 19.25352 v -38.135 l 23.81113,-95.4305 h -19.25353 l -14.04484,57.0165 -14.32388,-57.0165 h -19.25353 z"
           style="line-height:80.00000119%;font-family:OSP-DIN;-inkscape-font-specification:OSP-DIN;fill:#ffffff;fill-opacity:1"
           id="path949"
           inkscape:connector-curvature="0" />
      </g>
      <g
         style="fill:#00007e;fill-opacity:1;stroke:none"
         transform="matrix(22.596481,0,0,22.596481,-3025.4752,-12335.285)"
         id="g3075"
         inkscape:export-filename="/home/ale/docs/activite/libregraphics/lgm/lgm_2012/LGM_fr.png"
         inkscape:export-xdpi="21.42"
         inkscape:export-ydpi="21.42">
        <path
           style="display:inline;opacity:1;vector-effect:none;fill:#51d5ea;fill-opacity:1;stroke:none;stroke-width:0.52108383;stroke-linecap:round;stroke-linejoin:miter;stroke-miterlimit:4;stroke-dasharray:none;stroke-dashoffset:0;stroke-opacity:1"
           d="m 75.513045,554.61125 4.529835,16.90557 1.779536,-0.47683 11.566956,-3.09933 -0.476822,-1.77954 -11.56696,3.09937 -3.576182,-13.34652 13.346496,-3.5762 2.145711,8.00793 -2.6693,0.71524 -0.476827,-1.77954 1.779532,-0.47683 -0.476826,-1.77955 -3.559064,0.95366 1.430471,5.33859 6.228364,-1.66889 -3.099356,-11.56694 z m 19.464217,1.46012 0.476826,1.77955 8.897652,-2.38414 1.90729,7.11814 -1.77952,0.47683 -0.23842,-0.88976 0.88977,-0.23853 -0.47683,-1.77955 -2.6693,0.71524 1.19206,4.44884 1.77954,-0.47682 3.55906,-0.95366 -2.86094,-10.67718 z m 13.538128,7.81627 1.9073,7.11813 11.56697,-3.09937 -3.09936,-11.56693 -10.6772,2.86091 0.47682,1.77955 8.89767,-2.38413 2.14571,8.00793 -8.0079,2.14567 -0.95365,-3.55904 0.88977,-0.23854 0.47682,1.77954 1.77954,-0.47682 -0.95365,-3.55909 z m -15.428308,-0.63423 0.476823,1.77954 1.668888,6.22835 13.346487,-3.57616 -0.47683,-1.77954 -11.566955,3.09933 -1.192058,-4.4488 1.779536,-0.47683 0.238413,0.88975 -0.889772,0.23854 0.476826,1.77954 2.669297,-0.71524 -1.192059,-4.44884 z"
           id="rect1413-9"
           inkscape:connector-curvature="0"
           sodipodi:nodetypes="ccccccccccccccccccccccccccccccccccccccccccccccccccccccccccccc" />
      </g>
      <flowRoot
         xml:space="preserve"
         id="flowRoot4294"
         style="font-style:normal;font-weight:normal;font-size:40px;line-height:125%;font-family:Sans;letter-spacing:0px;word-spacing:0px;fill:#000000;fill-opacity:1;stroke:none"><flowRegion
           id="flowRegion4296"><rect
             id="rect4298"
             width="2325.7144"
             height="2028.5714"
             x="1217.1428"
             y="-261.92352" /></flowRegion><flowPara
           id="flowPara4300" /></flowRoot>      <text
         xml:space="preserve"
         style="font-style:normal;font-variant:normal;font-weight:bold;font-stretch:normal;font-size:190.48901367px;line-height:80.00000119%;font-family:DIN_OSP;-inkscape-font-specification:'DIN_OSP Bold';text-align:start;writing-mode:lr-tb;text-anchor:start;display:inline;fill:#000000;fill-opacity:1;stroke:none"
         x="-1214.9858"
         y="1723.4606"
         id="text3063-3"
         inkscape:export-filename="/home/ale/docs/activite/libregraphics/lgm/lgm_2012/LGM_fr.png"
         inkscape:export-xdpi="21.42"
         inkscape:export-ydpi="21.42"><tspan
           id="tspan3065-6"
           sodipodi:role="line"
           x="-1214.9858"
           y="1723.4606"
           style="line-height:80.00000119%;font-family:OSP-DIN;-inkscape-font-specification:OSP-DIN;fill:#ffffff;fill-opacity:1">LIBRE GRAPHICS </tspan><tspan
           id="tspan3067-7"
           sodipodi:role="line"
           x="-1214.9858"
           y="1883.4788"
           style="line-height:80.00000119%;font-family:OSP-DIN;-inkscape-font-specification:OSP-DIN;fill:#ffffff;fill-opacity:1"><tspan
   id="tspan3069-5"
   style="font-style:normal;font-variant:normal;font-weight:bold;font-stretch:normal;font-size:190.48901367px;line-height:80.00000119%;font-family:OSP-DIN;-inkscape-font-specification:OSP-DIN;text-align:start;writing-mode:lr-tb;text-anchor:start;fill:#51d5ea;fill-opacity:1">MEETING</tspan> 2020</tspan><tspan
           style="line-height:80.00000119%;font-family:OSP-DIN;-inkscape-font-specification:OSP-DIN;fill:#51d5ea;fill-opacity:1"
           id="tspan3071-3"
           sodipodi:role="line"
           x="-1214.9858"
           y="2043.4971">RENNES</tspan><tspan
           id="tspan3073-5"
           sodipodi:role="line"
           x="-1214.9858"
           y="2203.5151"
           style="line-height:80.00000119%;font-family:OSP-DIN;-inkscape-font-specification:OSP-DIN;fill:#ffffff;fill-opacity:1">26-29 MAY</tspan></text>
    </g>
  </g>
</svg>
